# xmcd
# 
# Track frame offsets:
#     150
#     14817
#     29987
#     45008
#     54842
#     69496
#     88718
#     109467
#     126621
#     142621
#     162536
#     180254
# 
# Disc length: 2726
# 
# Revision: 0
# Processed by: cddbd v1.5.2PL0 Copyright (c) Steve Scherf et al.
# Submitted via: fre:ac v1.0.31
# 
DISCID=a40aa40c
DTITLE=Berri Txarrak - Haria
DYEAR=2011
DGENRE=Rock
TTITLE0=Sugea suge
TTITLE1=Albo-kalteak
TTITLE2=Haria
TTITLE3=Guda
TTITLE4=Lepokoak
TTITLE5=Iraila
TTITLE6=Harra
TTITLE7=Makuluak
TTITLE8=FAQ
TTITLE9=Non bestela
TTITLE10=Soilik agur
TTITLE11=Lehortzen
EXTD=
EXTT0=
EXTT1=
EXTT2=
EXTT3=
EXTT4=
EXTT5=
EXTT6=
EXTT7=
EXTT8=
EXTT9=
EXTT10=
EXTT11=
PLAYORDER=
